<svg xmlns="http://www.w3.org/2000/svg" xmlns:xlink="http://www.w3.org/1999/xlink" width="1587" zoomAndPan="magnify" viewBox="0 0 1190.25 1683.749949" height="2245" preserveAspectRatio="xMidYMid meet" version="1.0">
  <defs>
    <clipPath id="14ca5747d2"><path d="M 0 0.40625 L 1189.5 0.40625 L 1189.5 1683.09375 L 0 1683.09375 Z M 0 0.40625 " clip-rule="nonzero"/></clipPath>
    <clipPath id="41dbf0f1f6"><path d="M 491 1419 L 691 1419 L 691 1618.929688 L 491 1618.929688 Z M 491 1419 " clip-rule="nonzero"/></clipPath>
    <clipPath id="84c6c48704"><path d="M 895 1158 L 1063.453125 1158 L 1063.453125 1344 L 895 1344 Z M 895 1158 " clip-rule="nonzero"/></clipPath>
  </defs>
  <g clip-path="url(#14ca5747d2)">
    <path fill="#ffffff" d="M 0 0.40625 L 1189.5 0.40625 L 1189.5 1683.09375 L 0 1683.09375 Z M 0 0.40625 " fill-opacity="1" fill-rule="nonzero"/>
    <path fill="#8f402f" d="M 0 0.40625 L 1189.5 0.40625 L 1189.5 1683.09375 L 0 1683.09375 Z M 0 0.40625 " fill-opacity="1" fill-rule="nonzero"/>
  </g>

  <!-- Centers -->
  <path id="center-head" fill="#fff8f5" d="M 614.601562 82.632812 L 679.019531 194.210938 C 689.625 212.570312 676.375 235.53125 655.167969 235.53125 L 526.328125 235.53125 C 505.117188 235.53125 491.871094 212.570312 502.476562 194.210938 L 566.894531 82.632812 C 577.5 64.273438 603.996094 64.273438 614.601562 82.632812 Z" fill-opacity="0.3"/>

  <path id="center-ajna" fill="#fff8f5" d="M 566.894531 449.519531 L 501.925781 336.980469 C 491.320312 318.621094 504.570312 295.660156 525.777344 295.660156 L 655.714844 295.660156 C 676.925781 295.660156 690.171875 318.621094 679.566406 336.980469 L 614.601562 449.519531 C 603.996094 467.878906 577.5 467.878906 566.894531 449.519531 Z" fill-opacity="0.3"/>

  <path id="center-throat" fill="#fff8f5" d="M 664.261719 728.851562 L 517.234375 728.851562 C 502.820312 728.851562 491.117188 717.148438 491.117188 702.734375 L 491.117188 555.707031 C 491.117188 541.289062 502.820312 529.585938 517.234375 529.585938 L 664.261719 529.585938 C 678.675781 529.585938 690.378906 541.289062 690.378906 555.707031 L 690.378906 702.734375 C 690.378906 717.148438 678.675781 728.851562 664.261719 728.851562 Z" fill-opacity="0.3"/>

  <path id="center-g" fill="#fff8f5" d="M 468.257812 881.300781 L 572.316406 777.242188 C 582.476562 767.082031 598.984375 767.082031 609.175781 777.242188 L 713.238281 881.300781 C 723.394531 891.460938 723.394531 907.96875 713.238281 918.160156 L 609.175781 1022.21875 C 599.019531 1032.378906 582.511719 1032.378906 572.316406 1022.21875 L 468.257812 918.160156 C 458.066406 907.96875 458.066406 891.496094 468.257812 881.300781 Z" fill-opacity="0.3"/>

  <path id="center-sacral" fill="#fff8f5" d="M 664.46875 1350.460938 L 517.027344 1350.460938 C 502.714844 1350.460938 491.117188 1338.859375 491.117188 1324.546875 L 491.117188 1177.109375 C 491.117188 1162.796875 502.714844 1151.195312 517.027344 1151.195312 L 664.46875 1151.195312 C 678.777344 1151.195312 690.378906 1162.796875 690.378906 1177.109375 L 690.378906 1324.546875 C 690.378906 1338.859375 678.777344 1350.460938 664.46875 1350.460938 Z" fill-opacity="0.3"/>

  <path id="center-root" fill="#fff8f5" d="M 664.46875 1619.015625 L 517.027344 1619.015625 C 502.714844 1619.015625 491.117188 1607.414062 491.117188 1593.105469 L 491.117188 1445.664062 C 491.117188 1431.351562 502.714844 1419.753906 517.027344 1419.753906 L 664.46875 1419.753906 C 678.777344 1419.753906 690.378906 1431.351562 690.378906 1445.664062 L 690.378906 1593.105469 C 690.378906 1607.382812 678.777344 1619.015625 664.46875 1619.015625 Z" fill-opacity="0.3"/>

  <path id="center-spleen" fill="#fff8f5" d="M 283.03125 1274.714844 L 171.457031 1339.132812 C 153.0625 1349.738281 130.066406 1336.492188 130.066406 1315.246094 L 130.066406 1186.410156 C 130.066406 1165.164062 153.0625 1151.882812 171.457031 1162.523438 L 283.03125 1226.941406 C 301.425781 1237.546875 301.425781 1264.109375 283.03125 1274.714844 Z" fill-opacity="0.3"/>

  <path id="center-solar" fill="#fff8f5" d="M 909.445312 1227.007812 L 1022.117188 1161.972656 C 1040.480469 1151.367188 1063.40625 1164.613281 1063.40625 1185.789062 L 1063.40625 1315.898438 C 1063.40625 1337.074219 1040.480469 1350.320312 1022.117188 1339.71875 L 909.445312 1274.679688 C 891.085938 1264.074219 891.085938 1237.582031 909.445312 1227.007812 Z" fill-opacity="0.3"/>

  <path id="center-heart" fill="#fff8f5" d="M 736.058594 1039.242188 L 810.261719 967.375 C 821.722656 956.292969 840.804688 960.753906 846.160156 975.785156 L 874.851562 1056.574219 C 880.203125 1071.605469 868.191406 1087.121094 852.300781 1085.746094 L 749.410156 1076.789062 C 730.671875 1075.210938 722.539062 1052.320312 736.058594 1039.242188 Z" fill-opacity="0.3"/>
</svg>
